<?xml version="1.0" standalone="no"?>
<!DOCTYPE svg PUBLIC "-//W3C//DTD SVG 20010904//EN"
 "http://www.w3.org/TR/2001/REC-SVG-20010904/DTD/svg10.dtd">
<svg version="1.0" xmlns="http://www.w3.org/2000/svg"
 width="1024.000000pt" height="1024.000000pt" viewBox="0 0 1024.000000 1024.000000"
 preserveAspectRatio="xMidYMid meet">
<metadata>
Created by potrace 1.14, written by Peter Selinger 2001-2017
</metadata>
<g transform="translate(0.000000,1024.000000) scale(0.100000,-0.100000)"
fill="#000000" stroke="none">
<path d="M3984 8015 c-111 -8 -287 -23 -390 -34 -104 -11 -250 -25 -324 -30
-227 -17 -475 -83 -662 -177 -103 -52 -152 -87 -242 -173 -175 -169 -267 -368
-323 -697 -15 -93 -18 -168 -18 -509 0 -270 4 -434 13 -505 55 -435 180 -668
462 -856 333 -221 764 -322 1874 -439 237 -25 517 -54 621 -65 724 -77 1008
-149 1167 -298 121 -113 146 -307 60 -466 -82 -152 -368 -243 -872 -277 -362
-24 -814 2 -1041 61 -306 79 -554 251 -560 387 0 15 3 65 7 111 7 78 6 84 -17
108 -57 62 -154 86 -439 109 -345 28 -922 12 -1065 -30 -113 -33 -167 -87
-202 -200 -27 -89 -25 -404 5 -571 76 -432 268 -706 617 -881 308 -155 779
-264 1350 -313 403 -35 1171 -50 1530 -31 949 52 1741 246 2175 535 121 81
242 206 292 302 79 151 156 420 205 719 26 162 27 187 27 505 0 315 -1 345
-27 503 -53 337 -99 452 -226 570 -214 198 -595 343 -1144 436 -322 55 -614
83 -1141 111 -876 46 -1026 58 -1240 105 -198 42 -355 110 -446 192 -91 82
-136 217 -111 334 51 241 298 386 756 445 112 15 209 19 480 19 431 -1 558
-17 763 -98 89 -35 109 -47 150 -92 26 -29 69 -96 97 -150 64 -125 98 -164
182 -208 187 -98 382 -114 1063 -89 228 9 301 15 364 32 132 34 192 84 238
201 19 47 22 75 22 214 1 134 -3 174 -22 248 -44 176 -121 318 -249 463 -174
197 -460 330 -854 398 -216 37 -571 58 -1454 86 -430 13 -1203 10 -1451 -5z"/>
</g>
</svg>
