<?xml version="1.0" encoding="UTF-8" standalone="no"?>
<svg
   width="512"
   height="512"
   version="1.1"
   id="svg1430"
   sodipodi:docname="sss"
   inkscape:version="1.2.2 (732a01da63, 2022-12-09, custom)"
   xmlns:inkscape="http://www.inkscape.org/namespaces/inkscape"
   xmlns:sodipodi="http://sodipodi.sourceforge.net/DTD/sodipodi-0.dtd"
   xmlns="http://www.w3.org/2000/svg"
   xmlns:svg="http://www.w3.org/2000/svg">
  <defs
     id="defs1434" />
  <sodipodi:namedview
     id="namedview1432"
     pagecolor="#ffffff"
     bordercolor="#666666"
     borderopacity="1.0"
     inkscape:showpageshadow="2"
     inkscape:pageopacity="0.0"
     inkscape:pagecheckerboard="0"
     inkscape:deskcolor="#d1d1d1"
     showgrid="false"
     inkscape:zoom="2.1405977"
     inkscape:cx="222.3678"
     inkscape:cy="225.63792"
     inkscape:window-width="1920"
     inkscape:window-height="1200"
     inkscape:window-x="0"
     inkscape:window-y="0"
     inkscape:window-maximized="1"
     inkscape:current-layer="svg1430" />
  <path
     style="fill:#ffffff;stroke:none"
     d="M -9.7730075,-9.689449 V 502.31055 H 502.22699 V -9.689449 Z"
     id="path18" />
  <path
     style="fill:#57c9ed;stroke:none"
     d="M 180.96967,112.8211 C 158.87767,115.7221 160.592,112.557 139,119.671 100.533,132.345 100.142,168.564 100.985,203 c 0.462,18.86 2.662,40.027 18.185,53.101 15.36,12.937 36.543,17.438 55.83,20.652 32.502,5.417 65.423,6.958 98,11.675 17.748,2.57 47.55,7.358 39.351,32.572 -2.304,7.087 -8.751,10.004 -15.351,11.964 -14.655,4.351 -31.807,5.036 -47,5.036 -16.792,0 -37.346,-1.42 -52,-10.468 -4.163,-2.571 -9.328,-6.525 -10.551,-11.532 -0.999,-4.092 2.803,-8.993 -0.782,-12.297 -4.254,-3.919 -13.204,-4.224 -18.667,-4.703 -14.769,-1.294 -30.231,-2.052 -45,-0.285 -5.744,0.686 -12.044,0.291 -16.867,4.089 -7.2369,5.699 -6.045,20.002 -5.302,28.196 2.312,25.478 12.324,44.331 37.169,54.396 27.383,11.092 57.833,13.366 87,14.643 40.252,1.763 80.76,0.442 120,-9.923 17.324,-4.576 39.461,-12.259 51.471,-26.287 5.422,-6.333 7.792,-14.975 9.953,-22.829 5.964,-21.684 7.448,-46.786 3.986,-69 -1.597,-10.242 -3.258,-21.995 -11.584,-29.101 C 385.435,231.47 365.911,226.237 349,222.801 c -34.088,-6.926 -67.572,-6.533 -102,-8.891 -16.507,-1.13 -57.264,-4.566 -51.966,-29.91 4.451,-21.295 41.971,-22.999 58.966,-23 14.294,-0.001 30.825,0.001 44,6.327 9.828,4.719 8.118,15.147 16.094,20.141 15.355,9.612 40.65,5.56 57.906,5.532 6.774,-0.011 16.066,-0.145 21.985,-3.854 6.956,-4.36 7.047,-12.816 7.014,-20.146 -0.085,-19.31 -12.759,-37.784 -29.999,-45.88 -21.606,-10.148 -46.704,-10.139 -70,-11.159 -30.939,-1.355 -89.22733,-3.1839 -120.03033,0.8601 z"
     id="path32"
     sodipodi:nodetypes="ccccccccscccccccccsscccscccscsccccc" />
  <path
     style="fill:#373737; stroke:none;"
     d="M373 123L374 124L373 123M125 124L126 125L125 124z"
     id="path124" />
  <path
     style="fill:#9b9b9b; stroke:none;"
     d="M126 124L127 125L126 124z"
     id="path126" />
  <path
     style="fill:#727272; stroke:none;"
     d="M374 124L375 125L374 124M124 125L125 126L124 125z"
     id="path130" />
  <path
     style="fill:#727272; stroke:none;"
     d="M122 126L123 127L122 126z"
     id="path136" />
  <path
     style="fill:#9b9b9b; stroke:none;"
     d="M121 127L122 128L121 127z"
     id="path142" />
  <path
     style="fill:#373737; stroke:none;"
     d="M119 128L120 129L119 128z"
     id="path146" />
  <path
     style="fill:#9b9b9b; stroke:none;"
     d="M120 128L121 129L120 128M380 128L381 129L380 128z"
     id="path148" />
  <path
     style="fill:#727272; stroke:none;"
     d="M118 129L119 130L118 129z"
     id="path150" />
  <path
     style="fill:#ffffff; stroke:none;"
     d="M119 129L120 130L119 129z"
     id="path152" />
  <path
     style="fill:#727272; stroke:none;"
     d="M117 130L118 131L117 130z"
     id="path154" />
  <path
     style="fill:#727272; stroke:none;"
     d="M116 131L117 132L116 131z"
     id="path158" />
  <path
     style="fill:#9b9b9b; stroke:none;"
     d="M115 132L116 133L115 132z"
     id="path162" />
  <path
     style="fill:#9b9b9b; stroke:none;"
     d="M114 133L115 134L114 133z"
     id="path166" />
  <path
     style="fill:#727272; stroke:none;"
     d="M113 134L114 135L113 134z"
     id="path170" />
  <path
     style="fill:#373737; stroke:none;"
     d="M112 135L111 137L112 135z"
     id="path174" />
  <path
     style="fill:#ffffff; stroke:none;"
     d="M112 136L113 137L112 136z"
     id="path178" />
  <path
     style="fill:#9b9b9b; stroke:none;"
     d="M111 137L112 138L111 137z"
     id="path180" />
  <path
     style="fill:#727272; stroke:none;"
     d="M389 137L390 138L389 137M110 138L111 139L110 138M390 138L391 139L390 138z"
     id="path182" />
  <path
     style="fill:#373737; stroke:none;"
     d="M109 139L110 140L109 139M391 139L392 140L391 139z"
     id="path184" />
  <path
     style="fill:#9b9b9b; stroke:none;"
     d="M109 140L110 141L109 140M391 140L392 141L391 140z"
     id="path186" />
  <path
     style="fill:#727272; stroke:none;"
     d="M108 141L109 142L108 141M392 141L393 142L392 141z"
     id="path188" />
  <path
     style="fill:#727272; stroke:none;"
     d="M107 143L108 144L107 143z"
     id="path194" />
  <path
     style="fill:#9b9b9b; stroke:none;"
     d="M393 143L394 144L393 143M107 144L108 145L107 144z"
     id="path196" />
  <path
     style="fill:#373737; stroke:none;"
     d="M394 144L395 145L394 144M106 145L107 146L106 145z"
     id="path198" />
  <path
     style="fill:#9b9b9b; stroke:none;"
     d="M394 145L395 146L394 145M106 146L107 147L106 146z"
     id="path200" />
  <path
     style="fill:#727272; stroke:none;"
     d="M105 148L106 149L105 148M396 148L397 149L396 148z"
     id="path206" />
  <path
     style="fill:#9b9b9b; stroke:none;"
     d="M105 149L106 150L105 149M396 149L397 150L396 149z"
     id="path208" />
  <path
     style="fill:#727272; stroke:none;"
     d="M104.333 150.667L104.667 151.333L104.333 150.667M397 150L398 151L397 150z"
     id="path210" />
  <path
     style="fill:#9b9b9b; stroke:none;"
     d="M397 151L398 152L397 151M104 152L105 153L104 152z"
     id="path212" />
  <path
     style="fill:#727272; stroke:none;"
     d="M398 153L399 154L398 153M103 154L104 155L103 154z"
     id="path216" />
  <path
     style="fill:#9b9b9b; stroke:none;"
     d="M398 154L399 155L398 154M103 155L104 156L103 155z"
     id="path218" />
  <path
     style="fill:#9b9b9b; stroke:none;"
     d="M101.333 218.667L101.667 219.333L101.333 218.667M325 218L326 219L325 218z"
     id="path530" />
  <path
     style="fill:#727272; stroke:none;"
     d="M101.333 220.667L101.667 221.333L101.333 220.667z"
     id="path544" />
  <path
     style="fill:#9b9b9b; stroke:none;"
     d="M102.333 224.667L102.667 225.333L102.333 224.667M357 224L358 225L357 224z"
     id="path568" />
  <path
     style="fill:#727272; stroke:none;"
     d="M102 226L103 227L102 226z"
     id="path580" />
  <path
     style="fill:#9b9b9b; stroke:none;"
     d="M103.333 228.667L103.667 229.333L103.333 228.667M370 228L371 229L370 228z"
     id="path594" />
  <path
     style="fill:#373737; stroke:none;"
     d="M374 229L375 230L374 229M103 230L104 231L103 230z"
     id="path602" />
  <path
     style="fill:#9b9b9b; stroke:none;"
     d="M104 232L105 233L104 232M381 232L382 233L381 232z"
     id="path614" />
  <path
     style="fill:#727272; stroke:none;"
     d="M104 233L105 234L104 233z"
     id="path618" />
  <path
     style="fill:#373737; stroke:none;"
     d="M104 234L105 235L104 234z"
     id="path624" />
  <path
     style="fill:#9b9b9b; stroke:none;"
     d="M105 235L106 236L105 235z"
     id="path628" />
  <path
     style="fill:#727272; stroke:none;"
     d="M388 235L389 236L388 235M105 236L106 237L105 236z"
     id="path630" />
  <path
     style="fill:#727272; stroke:none;"
     d="M106 238L107 239L106 238M393 238L394 239L393 238z"
     id="path638" />
  <path
     style="fill:#373737; stroke:none;"
     d="M106 239L107 240L106 239z"
     id="path640" />
  <path
     style="fill:#9b9b9b; stroke:none;"
     d="M107 240L108 241L107 240z"
     id="path646" />
  <path
     style="fill:#373737; stroke:none;"
     d="M107 241L108 242L107 241z"
     id="path652" />
  <path
     style="fill:#9b9b9b; stroke:none;"
     d="M108 242L109 243L108 242M398 242L399 243L398 242z"
     id="path656" />
  <path
     style="fill:#373737; stroke:none;"
     d="M108 243L109 244L108 243z"
     id="path658" />
  <path
     style="fill:#727272; stroke:none;"
     d="M109 244L110 245L109 244M110 246L111 247L110 246z"
     id="path662" />
  <path
     style="fill:#9b9b9b; stroke:none;"
     d="M402 246L403 247L402 246M111 247L112 248L111 247M403 247L404 248L403 247z"
     id="path664" />
  <path
     style="fill:#373737; stroke:none;"
     d="M111 248L112 249L111 248M404 248L405 249L404 248z"
     id="path666" />
  <path
     style="fill:#727272; stroke:none;"
     d="M112 249L113 250L112 249z"
     id="path668" />
  <path
     style="fill:#727272; stroke:none;"
     d="M113 250L114 251L113 250z"
     id="path672" />
  <path
     style="fill:#727272; stroke:none;"
     d="M114 251L115 252L114 251z"
     id="path676" />
  <path
     style="fill:#9b9b9b; stroke:none;"
     d="M405 251L406 252L405 251M115 252L116 253L115 252z"
     id="path678" />
  <path
     style="fill:#9b9b9b; stroke:none;"
     d="M119 256L120 257L119 256M407 256L408 257L407 256z"
     id="path686" />
  <path
     style="fill:#727272; stroke:none;"
     d="M120 257L121 258L120 257M121 258L122 259L121 258z"
     id="path688" />
  <path
     style="fill:#ffffff; stroke:none;"
     d="M122 258L123 259L122 258z"
     id="path690" />
  <path
     style="fill:#373737; stroke:none;"
     d="M122 259L123 260L122 259z"
     id="path694" />
  <path
     style="fill:#9b9b9b; stroke:none;"
     d="M123 259L124 260L123 259z"
     id="path696" />
  <path
     style="fill:#727272; stroke:none;"
     d="M124 260L125 261L124 260z"
     id="path698" />
  <path
     style="fill:#ffffff; stroke:none;"
     d="M125 260L126 261L125 260z"
     id="path700" />
  <path
     style="fill:#373737; stroke:none;"
     d="M125 261L126 262L125 261z"
     id="path704" />
  <path
     style="fill:#9b9b9b; stroke:none;"
     d="M126 261L127 262L126 261z"
     id="path706" />
  <path
     style="fill:#373737; stroke:none;"
     d="M127 262L128 263L127 262z"
     id="path708" />
  <path
     style="fill:#9b9b9b; stroke:none;"
     d="M128 262L129 263L128 262z"
     id="path710" />
  <path
     style="fill:#727272; stroke:none;"
     d="M129 263L130 264L129 263z"
     id="path714" />
  <path
     style="fill:#ffffff; stroke:none;"
     d="M130 263L131 264L130 263z"
     id="path716" />
  <path
     style="fill:#373737; stroke:none;"
     d="M130 264L131 265L130 264z"
     id="path720" />
  <path
     style="fill:#9b9b9b; stroke:none;"
     d="M131 264L132 265L131 264M409.333 264.667L409.667 265.333L409.333 264.667z"
     id="path722" />
  <path
     style="fill:#373737; stroke:none;"
     d="M132 265L133 266L132 265z"
     id="path724" />
  <path
     style="fill:#727272; stroke:none;"
     d="M133 265L134 266L133 265M135 266L136 267L135 266z"
     id="path726" />
  <path
     style="fill:#9b9b9b; stroke:none;"
     d="M136 266L137 267L136 266z"
     id="path728" />
  <path
     style="fill:#373737; stroke:none;"
     d="M137 267L138 268L137 267z"
     id="path730" />
  <path
     style="fill:#9b9b9b; stroke:none;"
     d="M138 267L139 268L138 267M410 267L411 268L410 267z"
     id="path732" />
  <path
     style="fill:#373737; stroke:none;"
     d="M139 268L140 269L139 268z"
     id="path734" />
  <path
     style="fill:#727272; stroke:none;"
     d="M140 268L141 269L140 268z"
     id="path736" />
  <path
     style="fill:#9b9b9b; stroke:none;"
     d="M141 268L142 269L141 268z"
     id="path738" />
  <path
     style="fill:#373737; stroke:none;"
     d="M410 268L411 269L410 268M142 269L143 270L142 269z"
     id="path740" />
  <path
     style="fill:#727272; stroke:none;"
     d="M143 269L144 270L143 269z"
     id="path742" />
  <path
     style="fill:#9b9b9b; stroke:none;"
     d="M144 269L145 270L144 269z"
     id="path744" />
  <path
     style="fill:#373737; stroke:none;"
     d="M145 270L146 271L145 270z"
     id="path748" />
  <path
     style="fill:#727272; stroke:none;"
     d="M146 270L147 271L146 270z"
     id="path750" />
  <path
     style="fill:#9b9b9b; stroke:none;"
     d="M147 270L148 271L147 270M410.333 270.667L410.667 271.333L410.333 270.667z"
     id="path752" />
  <path
     style="fill:#373737; stroke:none;"
     d="M148 271L149 272L148 271z"
     id="path754" />
  <path
     style="fill:#727272; stroke:none;"
     d="M149 271L150 272L149 271z"
     id="path756" />
  <path
     style="fill:#9b9b9b; stroke:none;"
     d="M150 271L151 272L150 271z"
     id="path758" />
  <path
     style="fill:#373737; stroke:none;"
     d="M151 272L152 273L151 272z"
     id="path760" />
  <path
     style="fill:#727272; stroke:none;"
     d="M152 272L153 273L152 272z"
     id="path762" />
  <path
     style="fill:#9b9b9b; stroke:none;"
     d="M153 272L154 273L153 272z"
     id="path764" />
  <path
     style="fill:#373737; stroke:none;"
     d="M155 273L156 274L155 273z"
     id="path766" />
  <path
     style="fill:#727272; stroke:none;"
     d="M156 273L157 274L156 273z"
     id="path768" />
  <path
     style="fill:#9b9b9b; stroke:none;"
     d="M157 273L158 274L157 273z"
     id="path770" />
  <path
     style="fill:#373737; stroke:none;"
     d="M159.667 274.333L160.333 274.667L159.667 274.333z"
     id="path772" />
  <path
     style="fill:#9b9b9b; stroke:none;"
     d="M161 274L162 275L161 274z"
     id="path774" />
  <path
     style="fill:#727272; stroke:none;"
     d="M165 275L166 276L165 275z"
     id="path778" />
  <path
     style="fill:#9b9b9b; stroke:none;"
     d="M166.667 275.333L167.333 275.667L166.667 275.333z"
     id="path780" />
  <path
     style="fill:#373737; stroke:none;"
     d="M169.667 276.333L170.333 276.667L169.667 276.333z"
     id="path782" />
  <path
     style="fill:#727272; stroke:none;"
     d="M171 276L172 277L171 276z"
     id="path784" />
  <path
     style="fill:#9b9b9b; stroke:none;"
     d="M172 276L173 277L172 276z"
     id="path786" />
  <path
     style="fill:#373737; stroke:none;"
     d="M175 277L176 278L175 277z"
     id="path788" />
  <path
     style="fill:#727272; stroke:none;"
     d="M176 277L177 278L176 277z"
     id="path790" />
  <path
     style="fill:#9b9b9b; stroke:none;"
     d="M177.667 277.333L178.333 277.667L177.667 277.333z"
     id="path792" />
  <path
     style="fill:#373737; stroke:none;"
     d="M181 278L182 279L181 278z"
     id="path796" />
  <path
     style="fill:#727272; stroke:none;"
     d="M182 278L183 279L182 278z"
     id="path798" />
  <path
     style="fill:#9b9b9b; stroke:none;"
     d="M183.667 278.333L184.333 278.667L183.667 278.333z"
     id="path800" />
  <path
     style="fill:#373737; stroke:none;"
     d="M187.667 279.333L188.333 279.667L187.667 279.333z"
     id="path802" />
  <path
     style="fill:#727272; stroke:none;"
     d="M189 279L190 280L189 279z"
     id="path804" />
  <path
     style="fill:#373737; stroke:none;"
     d="M202.667 281.333L203.333 281.667L202.667 281.333z"
     id="path814" />
  <path
     style="fill:#727272; stroke:none;"
     d="M204.667 281.333L205.333 281.667L204.667 281.333z"
     id="path816" />
  <path
     style="fill:#373737; stroke:none;"
     d="M211.667 282.333L212.333 282.667L211.667 282.333z"
     id="path820" />
  <path
     style="fill:#727272; stroke:none;"
     d="M213.667 282.333L214.333 282.667L213.667 282.333z"
     id="path822" />
  <path
     style="fill:#373737; stroke:none;"
     d="M221.667 283.333L222.333 283.667L221.667 283.333z"
     id="path826" />
  <path
     style="fill:#727272; stroke:none;"
     d="M223.667 283.333L224.333 283.667L223.667 283.333z"
     id="path828" />
  <path
     style="fill:#373737; stroke:none;"
     d="M231.667 284.333L232.333 284.667L231.667 284.333z"
     id="path832" />
  <path
     style="fill:#727272; stroke:none;"
     d="M233.667 284.333L234.333 284.667L233.667 284.333z"
     id="path834" />
  <path
     style="fill:#9b9b9b; stroke:none;"
     d="M235.667 284.333L236.333 284.667L235.667 284.333z"
     id="path836" />
  <path
     style="fill:#373737; stroke:none;"
     d="M240.667 285.333L241.333 285.667L240.667 285.333z"
     id="path838" />
  <path
     style="fill:#727272; stroke:none;"
     d="M242.667 285.333L243.333 285.667L242.667 285.333z"
     id="path840" />
  <path
     style="fill:#9b9b9b; stroke:none;"
     d="M244.667 285.333L245.333 285.667L244.667 285.333z"
     id="path842" />
  <path
     style="fill:#373737; stroke:none;"
     d="M249.667 286.333L250.333 286.667L249.667 286.333z"
     id="path844" />
  <path
     style="fill:#727272; stroke:none;"
     d="M251.667 286.333L252.333 286.667L251.667 286.333z"
     id="path846" />
  <path
     style="fill:#9b9b9b; stroke:none;"
     d="M253.667 286.333L254.333 286.667L253.667 286.333z"
     id="path848" />
  <path
     style="fill:#373737; stroke:none;"
     d="M258.667 287.333L259.333 287.667L258.667 287.333z"
     id="path850" />
  <path
     style="fill:#727272; stroke:none;"
     d="M260 287L261 288L260 287z"
     id="path852" />
  <path
     style="fill:#727272; stroke:none;"
     d="M268.667 288.333L269.333 288.667L268.667 288.333z"
     id="path858" />
  <path
     style="fill:#373737; stroke:none;"
     d="M275 289L276 290L275 289z"
     id="path862" />
  <path
     style="fill:#727272; stroke:none;"
     d="M276 289L277 290L276 289z"
     id="path864" />
  <path
     style="fill:#9b9b9b; stroke:none;"
     d="M277.667 289.333L278.333 289.667L277.667 289.333M280 290L281 291L280 290z"
     id="path866" />
  <path
     style="fill:#373737; stroke:none;"
     d="M281 290L282 291L281 290z"
     id="path868" />
  <path
     style="fill:#727272; stroke:none;"
     d="M282 290L283 291L282 290z"
     id="path870" />
  <path
     style="fill:#9b9b9b; stroke:none;"
     d="M283.667 290.333L284.333 290.667L283.667 290.333z"
     id="path872" />
  <path
     style="fill:#373737; stroke:none;"
     d="M286.667 291.333L287.333 291.667L286.667 291.333z"
     id="path874" />
  <path
     style="fill:#727272; stroke:none;"
     d="M288 291L289 292L288 291z"
     id="path876" />
  <path
     style="fill:#9b9b9b; stroke:none;"
     d="M289 291L290 292L289 291z"
     id="path878" />
  <path
     style="fill:#373737; stroke:none;"
     d="M291 292L292 293L291 292z"
     id="path880" />
  <path
     style="fill:#727272; stroke:none;"
     d="M292 292L293 293L292 292z"
     id="path882" />
  <path
     style="fill:#9b9b9b; stroke:none;"
     d="M293 292L294 293L293 292z"
     id="path884" />
  <path
     style="fill:#373737; stroke:none;"
     d="M295 293L296 294L295 293z"
     id="path886" />
  <path
     style="fill:#9b9b9b; stroke:none;"
     d="M296.667 293.333L297.333 293.667L296.667 293.333z"
     id="path888" />
  <path
     style="fill:#373737; stroke:none;"
     d="M298 294L299 295L298 294z"
     id="path890" />
  <path
     style="fill:#727272; stroke:none;"
     d="M299 294L300 295L299 294z"
     id="path892" />
  <path
     style="fill:#9b9b9b; stroke:none;"
     d="M300 294L301 295L300 294z"
     id="path894" />
  <path
     style="fill:#373737; stroke:none;"
     d="M301 295L302 296L301 295z"
     id="path896" />
  <path
     style="fill:#9b9b9b; stroke:none;"
     d="M302 295L303 296L302 295z"
     id="path898" />
  <path
     style="fill:#373737; stroke:none;"
     d="M303 296L304 297L303 296z"
     id="path900" />
  <path
     style="fill:#9b9b9b; stroke:none;"
     d="M304 296L305 297L304 296M128 297L129 298L128 297z"
     id="path902" />
  <path
     style="fill:#727272; stroke:none;"
     d="M305 297L306 298L305 297z"
     id="path910" />
  <path
     style="fill:#373737; stroke:none;"
     d="M116.667 298.333L117.333 298.667L116.667 298.333z"
     id="path912" />
  <path
     style="fill:#727272; stroke:none;"
     d="M118 298L119 299L118 298z"
     id="path914" />
  <path
     style="fill:#727272; stroke:none;"
     d="M167.667 298.333L168.333 298.667L167.667 298.333z"
     id="path918" />
  <path
     style="fill:#373737; stroke:none;"
     d="M169.667 298.333L170.333 298.667L169.667 298.333z"
     id="path920" />
  <path
     style="fill:#727272; stroke:none;"
     d="M307 298L308 299L307 298z"
     id="path922" />
  <path
     style="fill:#373737; stroke:none;"
     d="M111 299L112 300L111 299z"
     id="path924" />
  <path
     style="fill:#727272; stroke:none;"
     d="M112 299L113 300L112 299z"
     id="path926" />
  <path
     style="fill:#9b9b9b; stroke:none;"
     d="M113.667 299.333L114.333 299.667L113.667 299.333M173.667 299.333L174.333 299.667L173.667 299.333z"
     id="path928" />
  <path
     style="fill:#727272; stroke:none;"
     d="M175 299L176 300L175 299z"
     id="path930" />
  <path
     style="fill:#373737; stroke:none;"
     d="M176 299L177 300L176 299z"
     id="path932" />
  <path
     style="fill:#9b9b9b; stroke:none;"
     d="M177 299L178 300L177 299z"
     id="path934" />
  <path
     style="fill:#373737; stroke:none;"
     d="M308 299L309 300L308 299M108 300L109 301L108 300z"
     id="path936" />
  <path
     style="fill:#9b9b9b; stroke:none;"
     d="M109 300L110 301L109 300M179 300L180 301L179 300z"
     id="path938" />
  <path
     style="fill:#727272; stroke:none;"
     d="M180 300L181 301L180 300z"
     id="path940" />
  <path
     style="fill:#373737; stroke:none;"
     d="M181 300L182 301L181 300z"
     id="path942" />
  <path
     style="fill:#9b9b9b; stroke:none;"
     d="M309 300L310 301L309 300z"
     id="path944" />
  <path
     style="fill:#373737; stroke:none;"
     d="M106 301L105 303L106 301z"
     id="path946" />
  <path
     style="fill:#9b9b9b; stroke:none;"
     d="M107 301L108 302L107 301M183 301L184 302L183 301z"
     id="path948" />
  <path
     style="fill:#373737; stroke:none;"
     d="M184 301L185 302L184 301z"
     id="path950" />
  <path
     style="fill:#9b9b9b; stroke:none;"
     d="M310 301L311 302L310 301z"
     id="path952" />
  <path
     style="fill:#ffffff; stroke:none;"
     d="M106 302L107 303L106 302z"
     id="path954" />
  <path
     style="fill:#9b9b9b; stroke:none;"
     d="M185 302L186 303L185 302z"
     id="path956" />
  <path
     style="fill:#727272; stroke:none;"
     d="M186 302L187 303L186 302z"
     id="path958" />
  <path
     style="fill:#373737; stroke:none;"
     d="M310 302L311 303L310 302z"
     id="path960" />
  <path
     style="fill:#727272; stroke:none;"
     d="M104 303L105 304L104 303z"
     id="path962" />
  <path
     style="fill:#373737; stroke:none;"
     d="M188 303L190 305L188 303z"
     id="path964" />
  <path
     style="fill:#9b9b9b; stroke:none;"
     d="M311 303L312 304L311 303z"
     id="path966" />
  <path
     style="fill:#727272; stroke:none;"
     d="M103 304L104 305L103 304z"
     id="path968" />
  <path
     style="fill:#ffffff; stroke:none;"
     d="M188 304L189 305L188 304z"
     id="path970" />
  <path
     style="fill:#373737; stroke:none;"
     d="M311 304L312 305L311 304M102 305L103 306L102 305z"
     id="path972" />
  <path
     style="fill:#9b9b9b; stroke:none;"
     d="M189.333 305.667L189.667 306.333L189.333 305.667M312 305L313 306L312 305M102 306L103 307L102 306z"
     id="path974" />
  <path
     style="fill:#727272; stroke:none;"
     d="M312 306L313 307L312 306z"
     id="path976" />
  <path
     style="fill:#373737; stroke:none;"
     d="M189 307L190 308L189 307M312.333 307.667L312.667 308.333L312.333 307.667z"
     id="path978" />
  <path
     style="fill:#727272; stroke:none;"
     d="M101 308L102 309L101 308z"
     id="path980" />
  <path
     style="fill:#373737; stroke:none;"
     d="M188 309L189 310L188 309z"
     id="path984" />
  <path
     style="fill:#9b9b9b; stroke:none;"
     d="M187.333 310.667L187.667 311.333L187.333 310.667z"
     id="path986" />
  <path
     style="fill:#373737; stroke:none;"
     d="M187 313L188 314L187 313z"
     id="path990" />
  <path
     style="fill:#727272; stroke:none;"
     d="M187 314L188 315L187 314z"
     id="path994" />
  <path
     style="fill:#9b9b9b; stroke:none;"
     d="M187.333 315.667L187.667 316.333L187.333 315.667z"
     id="path996" />
  <path
     style="fill:#ffffff; stroke:none;"
     d="M187 317L188 318L187 317z"
     id="path998" />
  <path
     style="fill:#727272; stroke:none;"
     d="M188 318L189 319L188 318z"
     id="path1002" />
  <path
     style="fill:#ffffff; stroke:none;"
     d="M188 319L189 320L188 319z"
     id="path1004" />
  <path
     style="fill:#373737; stroke:none;"
     d="M189 319L190 320L189 319z"
     id="path1006" />
  <path
     style="fill:#9b9b9b; stroke:none;"
     d="M312 321L313 322L312 321z"
     id="path1012" />
  <path
     style="fill:#373737; stroke:none;"
     d="M191 322L192 323L191 322M311 322L312 323L311 322z"
     id="path1014" />
  <path
     style="fill:#727272; stroke:none;"
     d="M410.333 322.667L410.667 323.333L410.333 322.667M192 323L193 324L192 323M311 323L312 324L311 323z"
     id="path1016" />
  <path
     style="fill:#9b9b9b; stroke:none;"
     d="M193 324L194 325L193 324z"
     id="path1018" />
  <path
     style="fill:#373737; stroke:none;"
     d="M310 324L311 325L310 324z"
     id="path1020" />
  <path
     style="fill:#9b9b9b; stroke:none;"
     d="M194 325L195 326L194 325z"
     id="path1022" />
  <path
     style="fill:#373737; stroke:none;"
     d="M195 325L196 326L195 325z"
     id="path1024" />
  <path
     style="fill:#9b9b9b; stroke:none;"
     d="M310 325L311 326L310 325M196.667 326.333L197.333 326.667L196.667 326.333z"
     id="path1026" />
  <path
     style="fill:#727272; stroke:none;"
     d="M309 326L310 327L309 326z"
     id="path1028" />
  <path
     style="fill:#ffffff; stroke:none;"
     d="M197 327L198 328L197 327z"
     id="path1032" />
  <path
     style="fill:#727272; stroke:none;"
     d="M198 327L199 328L198 327M308 327L309 328L308 327z"
     id="path1034" />
  <path
     style="fill:#9b9b9b; stroke:none;"
     d="M199 328L200 329L199 328z"
     id="path1036" />
  <path
     style="fill:#727272; stroke:none;"
     d="M200 328L201 329L200 328z"
     id="path1038" />
  <path
     style="fill:#373737; stroke:none;"
     d="M306 328L307 329L306 328z"
     id="path1040" />
  <path
     style="fill:#9b9b9b; stroke:none;"
     d="M307 328L308 329L307 328z"
     id="path1042" />
  <path
     style="fill:#9b9b9b; stroke:none;"
     d="M201 329L202 330L201 329z"
     id="path1046" />
  <path
     style="fill:#727272; stroke:none;"
     d="M202 329L203 330L202 329M305 329L306 330L305 329z"
     id="path1048" />
  <path
     style="fill:#ffffff; stroke:none;"
     d="M306 329L307 330L306 329z"
     id="path1050" />
  <path
     style="fill:#9b9b9b; stroke:none;"
     d="M203 330L204 331L203 330z"
     id="path1052" />
  <path
     style="fill:#727272; stroke:none;"
     d="M204 330L205 331L204 330z"
     id="path1054" />
  <path
     style="fill:#373737; stroke:none;"
     d="M205 330L206 331L205 330M302 330L303 331L302 330z"
     id="path1056" />
  <path
     style="fill:#727272; stroke:none;"
     d="M303 330L304 331L303 330z"
     id="path1058" />
  <path
     style="fill:#9b9b9b; stroke:none;"
     d="M304 330L305 331L304 330z"
     id="path1060" />
  <path
     style="fill:#727272; stroke:none;"
     d="M207 331L208 332L207 331z"
     id="path1066" />
  <path
     style="fill:#373737; stroke:none;"
     d="M208 331L209 332L208 331M299 331L300 332L299 331z"
     id="path1068" />
  <path
     style="fill:#727272; stroke:none;"
     d="M300 331L301 332L300 331z"
     id="path1070" />
  <path
     style="fill:#9b9b9b; stroke:none;"
     d="M301 331L302 332L301 331M209 332L210 333L209 332z"
     id="path1072" />
  <path
     style="fill:#727272; stroke:none;"
     d="M210 332L211 333L210 332z"
     id="path1074" />
  <path
     style="fill:#373737; stroke:none;"
     d="M211 332L212 333L211 332M296 332L297 333L296 332z"
     id="path1076" />
  <path
     style="fill:#727272; stroke:none;"
     d="M297 332L298 333L297 332z"
     id="path1078" />
  <path
     style="fill:#9b9b9b; stroke:none;"
     d="M298 332L299 333L298 332M408.333 332.667L408.667 333.333L408.333 332.667M213 333L214 334L213 333z"
     id="path1080" />
  <path
     style="fill:#373737; stroke:none;"
     d="M214 333L215 334L214 333z"
     id="path1082" />
  <path
     style="fill:#9b9b9b; stroke:none;"
     d="M291 333L292 334L291 333z"
     id="path1084" />
  <path
     style="fill:#373737; stroke:none;"
     d="M292 333L293 334L292 333z"
     id="path1086" />
  <path
     style="fill:#727272; stroke:none;"
     d="M293 333L294 334L293 333z"
     id="path1088" />
  <path
     style="fill:#9b9b9b; stroke:none;"
     d="M294 333L295 334L294 333M217 334L218 335L217 334z"
     id="path1090" />
  <path
     style="fill:#727272; stroke:none;"
     d="M218 334L219 335L218 334z"
     id="path1092" />
  <path
     style="fill:#373737; stroke:none;"
     d="M219 334L220 335L219 334z"
     id="path1094" />
  <path
     style="fill:#9b9b9b; stroke:none;"
     d="M220 334L221 335L220 334M285 334L286 335L285 334z"
     id="path1096" />
  <path
     style="fill:#373737; stroke:none;"
     d="M286 334L287 335L286 334z"
     id="path1098" />
  <path
     style="fill:#727272; stroke:none;"
     d="M287.667 334.333L288.333 334.667L287.667 334.333z"
     id="path1100" />
  <path
     style="fill:#9b9b9b; stroke:none;"
     d="M289 334L290 335L289 334z"
     id="path1102" />
  <path
     style="fill:#9b9b9b; stroke:none;"
     d="M222.667 335.333L223.333 335.667L222.667 335.333z"
     id="path1106" />
  <path
     style="fill:#727272; stroke:none;"
     d="M224 335L225 336L224 335z"
     id="path1108" />
  <path
     style="fill:#373737; stroke:none;"
     d="M225.667 335.333L226.333 335.667L225.667 335.333M278.667 335.333L279.333 335.667L278.667 335.333z"
     id="path1110" />
  <path
     style="fill:#727272; stroke:none;"
     d="M280 335L281 336L280 335z"
     id="path1112" />
  <path
     style="fill:#9b9b9b; stroke:none;"
     d="M281.667 335.333L282.333 335.667L281.667 335.333z"
     id="path1114" />
  <path
     style="fill:#727272; stroke:none;"
     d="M232.667 336.333L233.333 336.667L232.667 336.333z"
     id="path1122" />
  <path
     style="fill:#373737; stroke:none;"
     d="M234.667 336.333L235.333 336.667L234.667 336.333z"
     id="path1124" />
  <path
     style="fill:#9b9b9b; stroke:none;"
     d="M236 336L237 337L236 336z"
     id="path1126" />
  <path
     style="fill:#9b9b9b; stroke:none;"
     d="M406 341L407 342L406 341M101.333 342.667L101.667 343.333L101.333 342.667z"
     id="path1142" />
  <path
     style="fill:#727272; stroke:none;"
     d="M101 344L102 345L101 344z"
     id="path1148" />
  <path
     style="fill:#373737; stroke:none;"
     d="M101 345L102 346L101 345z"
     id="path1150" />
  <path
     style="fill:#9b9b9b; stroke:none;"
     d="M102 347L103 348L102 347z"
     id="path1156" />
  <path
     style="fill:#727272; stroke:none;"
     d="M102 348L103 349L102 348z"
     id="path1158" />
  <path
     style="fill:#373737; stroke:none;"
     d="M102 349L103 350L102 349z"
     id="path1162" />
  <path
     style="fill:#9b9b9b; stroke:none;"
     d="M103.333 350.667L103.667 351.333L103.333 350.667z"
     id="path1166" />
  <path
     style="fill:#373737; stroke:none;"
     d="M103 352L104 353L103 352M403 352L404 353L403 352z"
     id="path1172" />
  <path
     style="fill:#9b9b9b; stroke:none;"
     d="M104 353L105 354L104 353M402 353L403 354L402 353z"
     id="path1174" />
  <path
     style="fill:#373737; stroke:none;"
     d="M104 354L105 355L104 354z"
     id="path1176" />
  <path
     style="fill:#9b9b9b; stroke:none;"
     d="M105 355L106 356L105 355M401 355L402 356L401 355z"
     id="path1180" />
  <path
     style="fill:#727272; stroke:none;"
     d="M105 356L106 357L105 356M401 356L402 357L401 356z"
     id="path1182" />
  <path
     style="fill:#727272; stroke:none;"
     d="M106 358L107 359L106 358M400 358L401 359L400 358z"
     id="path1186" />
  <path
     style="fill:#727272; stroke:none;"
     d="M107 360L108 361L107 360M399 360L400 361L399 360z"
     id="path1190" />
  <path
     style="fill:#9b9b9b; stroke:none;"
     d="M108 361L109 362L108 361z"
     id="path1192" />
  <path
     style="fill:#373737; stroke:none;"
     d="M108 362L109 363L108 362z"
     id="path1196" />
  <path
     style="fill:#9b9b9b; stroke:none;"
     d="M397 362L398 363L397 362M109 363L110 364L109 363z"
     id="path1198" />
  <path
     style="fill:#373737; stroke:none;"
     d="M109 364L110 365L109 364z"
     id="path1200" />
  <path
     style="fill:#ffffff; stroke:none;"
     d="M110 364L111 365L110 364z"
     id="path1202" />
  <path
     style="fill:#727272; stroke:none;"
     d="M110 365L111 366L110 365z"
     id="path1206" />
  <path
     style="fill:#727272; stroke:none;"
     d="M111 366L112 367L111 366z"
     id="path1210" />
  <path
     style="fill:#9b9b9b; stroke:none;"
     d="M112 367L113 368L112 367M392 367L393 368L392 367M113 368L114 369L113 368M391 368L392 369L391 368z"
     id="path1212" />
  <path
     style="fill:#373737; stroke:none;"
     d="M114 370L115 371L114 370z"
     id="path1216" />
  <path
     style="fill:#373737; stroke:none;"
     d="M389 370L390 371L389 370M115 371L116 372L115 371z"
     id="path1220" />
  <path
     style="fill:#373737; stroke:none;"
     d="M116 372L117 373L116 372z"
     id="path1224" />
  <path
     style="fill:#373737; stroke:none;"
     d="M117 373L118 374L117 373z"
     id="path1230" />
  <path
     style="fill:#ffffff; stroke:none;"
     d="M118 373L119 374L118 373z"
     id="path1232" />
  <path
     style="fill:#727272; stroke:none;"
     d="M118 374L119 375L118 374z"
     id="path1238" />
  <path
     style="fill:#9b9b9b; stroke:none;"
     d="M119 374L120 375L119 374z"
     id="path1240" />
  <path
     style="fill:#9b9b9b; stroke:none;"
     d="M120 375L121 376L120 375z"
     id="path1244" />
  <path
     style="fill:#727272; stroke:none;"
     d="M381 375L382 376L381 375M121 376L122 377L121 376z"
     id="path1246" />
  <path
     style="fill:#373737; stroke:none;"
     d="M380 376L381 377L380 376M122 377L123 378L122 377z"
     id="path1250" />
  <path
     style="fill:#9b9b9b; stroke:none;"
     d="M123 377L124 378L123 377M377 377L378 378L377 377z"
     id="path1252" />
  <path
     style="fill:#9b9b9b; stroke:none;"
     d="M124 378L125 379L124 378M375 378L376 379L375 378z"
     id="path1256" />
  <path
     style="fill:#727272; stroke:none;"
     d="M376 378L377 379L376 378M125 379L126 380L125 379z"
     id="path1258" />
  <path
     style="fill:#ffffff; stroke:none;"
     d="M126 379L127 380L126 379z"
     id="path1260" />
  <path
     style="fill:#373737; stroke:none;"
     d="M126 380L127 381L126 380z"
     id="path1266" />
  <path
     style="fill:#9b9b9b; stroke:none;"
     d="M127 380L128 381L127 380M371 380L372 381L371 380z"
     id="path1268" />
  <path
     style="fill:#373737; stroke:none;"
     d="M128 381L129 382L128 381z"
     id="path1272" />
  <path
     style="fill:#9b9b9b; stroke:none;"
     d="M129 381L130 382L129 381M369 381L370 382L369 381z"
     id="path1274" />
  <path
     style="fill:#373737; stroke:none;"
     d="M370 381L371 382L370 381M130 382L131 383L130 382z"
     id="path1276" />
  <path
     style="fill:#9b9b9b; stroke:none;"
     d="M131 382L132 383L131 382M367 382L368 383L367 382z"
     id="path1278" />
  <path
     style="fill:#373737; stroke:none;"
     d="M368 382L369 383L368 382M132 383L133 384L132 383z"
     id="path1280" />
  <path
     style="fill:#9b9b9b; stroke:none;"
     d="M133 383L134 384L133 383z"
     id="path1282" />
  <path
     style="fill:#373737; stroke:none;"
     d="M366 383L367 384L366 383M134 384L135 385L134 384z"
     id="path1286" />
  <path
     style="fill:#9b9b9b; stroke:none;"
     d="M135 384L136 385L135 384M362 384L363 385L362 384z"
     id="path1288" />
  <path
     style="fill:#373737; stroke:none;"
     d="M136 385L137 386L136 385z"
     id="path1292" />
  <path
     style="fill:#727272; stroke:none;"
     d="M137 385L138 386L137 385z"
     id="path1294" />
  <path
     style="fill:#9b9b9b; stroke:none;"
     d="M138 385L139 386L138 385M360 385L361 386L360 385z"
     id="path1296" />
  <path
     style="fill:#373737; stroke:none;"
     d="M361 385L362 386L361 385M139 386L140 387L139 386z"
     id="path1298" />
  <path
     style="fill:#9b9b9b; stroke:none;"
     d="M140 386L141 387L140 386M357 386L358 387L357 386z"
     id="path1300" />
  <path
     style="fill:#373737; stroke:none;"
     d="M358 386L359 387L358 386M141 387L142 388L141 387z"
     id="path1302" />
  <path
     style="fill:#727272; stroke:none;"
     d="M142 387L143 388L142 387z"
     id="path1304" />
  <path
     style="fill:#9b9b9b; stroke:none;"
     d="M143 387L144 388L143 387M354 387L355 388L354 387z"
     id="path1306" />
  <path
     style="fill:#373737; stroke:none;"
     d="M355 387L356 388L355 387M144 388L145 389L144 388z"
     id="path1308" />
  <path
     style="fill:#727272; stroke:none;"
     d="M145 388L146 389L145 388z"
     id="path1310" />
  <path
     style="fill:#9b9b9b; stroke:none;"
     d="M146 388L147 389L146 388M351 388L352 389L351 388z"
     id="path1312" />
  <path
     style="fill:#373737; stroke:none;"
     d="M147 389L148 390L147 389z"
     id="path1316" />
  <path
     style="fill:#727272; stroke:none;"
     d="M148 389L149 390L148 389z"
     id="path1318" />
  <path
     style="fill:#9b9b9b; stroke:none;"
     d="M149 389L150 390L149 389M347 389L348 390L347 389z"
     id="path1320" />
  <path
     style="fill:#373737; stroke:none;"
     d="M349 389L350 390L349 389M150 390L151 391L150 390z"
     id="path1324" />
  <path
     style="fill:#727272; stroke:none;"
     d="M151 390L152 391L151 390z"
     id="path1326" />
  <path
     style="fill:#9b9b9b; stroke:none;"
     d="M152 390L153 391L152 390M344 390L345 391L344 390z"
     id="path1328" />
  <path
     style="fill:#373737; stroke:none;"
     d="M345 390L346 391L345 390M153 391L154 392L153 391z"
     id="path1330" />
  <path
     style="fill:#727272; stroke:none;"
     d="M154 391L155 392L154 391z"
     id="path1332" />
  <path
     style="fill:#9b9b9b; stroke:none;"
     d="M155 391L156 392L155 391M340 391L341 392L340 391z"
     id="path1334" />
  <path
     style="fill:#373737; stroke:none;"
     d="M342 391L343 392L342 391M157.667 392.333L158.333 392.667L157.667 392.333z"
     id="path1338" />
  <path
     style="fill:#727272; stroke:none;"
     d="M159 392L160 393L159 392z"
     id="path1340" />
  <path
     style="fill:#9b9b9b; stroke:none;"
     d="M160 392L161 393L160 392M335 392L336 393L335 392z"
     id="path1342" />
  <path
     style="fill:#373737; stroke:none;"
     d="M337 392L338 393L337 392M162 393L163 394L162 393z"
     id="path1346" />
  <path
     style="fill:#727272; stroke:none;"
     d="M163 393L164 394L163 393z"
     id="path1348" />
  <path
     style="fill:#9b9b9b; stroke:none;"
     d="M164 393L165 394L164 393M331 393L332 394L331 393z"
     id="path1350" />
  <path
     style="fill:#373737; stroke:none;"
     d="M333 393L334 394L333 393M167 394L168 395L167 394z"
     id="path1354" />
  <path
     style="fill:#727272; stroke:none;"
     d="M168 394L169 395L168 394z"
     id="path1356" />
  <path
     style="fill:#9b9b9b; stroke:none;"
     d="M169.667 394.333L170.333 394.667L169.667 394.333M326 394L327 395L326 394z"
     id="path1358" />
  <path
     style="fill:#373737; stroke:none;"
     d="M328.667 394.333L329.333 394.667L328.667 394.333M172.667 395.333L173.333 395.667L172.667 395.333z"
     id="path1362" />
  <path
     style="fill:#727272; stroke:none;"
     d="M174 395L175 396L174 395z"
     id="path1364" />
  <path
     style="fill:#9b9b9b; stroke:none;"
     d="M175 395L176 396L175 395M321 395L322 396L321 395z"
     id="path1366" />
  <path
     style="fill:#373737; stroke:none;"
     d="M178 396L179 397L178 396z"
     id="path1374" />
  <path
     style="fill:#727272; stroke:none;"
     d="M179.667 396.333L180.333 396.667L179.667 396.333z"
     id="path1376" />
  <path
     style="fill:#9b9b9b; stroke:none;"
     d="M181.667 396.333L182.333 396.667L181.667 396.333M315.667 396.333L316.333 396.667L315.667 396.333z"
     id="path1378" />
  <path
     style="fill:#727272; stroke:none;"
     d="M317 396L318 397L317 396z"
     id="path1380" />
  <path
     style="fill:#373737; stroke:none;"
     d="M318 396L319 397L318 396z"
     id="path1382" />
  <path
     style="fill:#9b9b9b; stroke:none;"
     d="M184 397L185 398L184 397z"
     id="path1384" />
  <path
     style="fill:#373737; stroke:none;"
     d="M185 397L186 398L185 397z"
     id="path1386" />
  <path
     style="fill:#727272; stroke:none;"
     d="M186.667 397.333L187.333 397.667L186.667 397.333z"
     id="path1388" />
  <path
     style="fill:#9b9b9b; stroke:none;"
     d="M188 397L189 398L188 397M308.667 397.333L309.333 397.667L308.667 397.333z"
     id="path1390" />
  <path
     style="fill:#727272; stroke:none;"
     d="M310 397L311 398L310 397z"
     id="path1392" />
  <path
     style="fill:#373737; stroke:none;"
     d="M311.667 397.333L312.333 397.667L311.667 397.333z"
     id="path1394" />
  <path
     style="fill:#9b9b9b; stroke:none;"
     d="M191 398L192 399L191 398z"
     id="path1396" />
  <path
     style="fill:#373737; stroke:none;"
     d="M192.667 398.333L193.333 398.667L192.667 398.333z"
     id="path1398" />
  <path
     style="fill:#727272; stroke:none;"
     d="M194.667 398.333L195.333 398.667L194.667 398.333z"
     id="path1400" />
  <path
     style="fill:#727272; stroke:none;"
     d="M302.667 398.333L303.333 398.667L302.667 398.333z"
     id="path1404" />
  <path
     style="fill:#727272; stroke:none;"
     d="M204.667 399.333L205.333 399.667L204.667 399.333z"
     id="path1408" />
  <path
     style="fill:#727272; stroke:none;"
     d="M293.667 399.333L294.333 399.667L293.667 399.333z"
     id="path1412" />
  <path
     style="fill:#9b9b9b; stroke:none;"
     d="M233 401L234 402L233 401z"
     id="path1424" />
  <path
     style="fill:#9b9b9b; stroke:none;"
     d="M262 401L263 402L262 401z"
     id="path1428" />
</svg>
